<?xml version="1.0" standalone="no"?>
<!DOCTYPE svg PUBLIC "-//W3C//DTD SVG 20010904//EN"
 "http://www.w3.org/TR/2001/REC-SVG-20010904/DTD/svg10.dtd">
<svg version="1.0" xmlns="http://www.w3.org/2000/svg"
 width="1024.000000pt" height="1024.000000pt" viewBox="0 0 1024.000000 1024.000000"
 preserveAspectRatio="xMidYMid meet">

<g transform="translate(0.000000,1024.000000) scale(0.100000,-0.100000)"
fill="#000000" stroke="none">
<path d="M5069 8363 c-54 -8 -132 -66 -166 -121 -35 -59 -50 -134 -34 -172 25
-63 107 -164 151 -188 89 -47 218 -13 289 77 73 92 88 178 47 267 -48 103
-159 157 -287 137z"/>
<path d="M4750 7873 c-200 -209 -348 -421 -489 -701 -25 -49 -36 -63 -49 -58
-9 3 -96 32 -192 66 -187 64 -462 131 -623 151 -149 18 -317 -8 -356 -55 -12
-15 -17 -13 -56 23 -86 79 -201 80 -286 4 -79 -72 -101 -170 -58 -260 27 -56
63 -85 135 -109 l59 -19 -41 -3 c-65 -5 -75 -23 -85 -154 -9 -118 -7 -166 17
-362 18 -144 34 -216 81 -359 19 -60 32 -114 30 -122 -3 -7 -59 -44 -124 -83
-258 -153 -503 -366 -503 -437 0 -12 -5 -15 -17 -10 -10 4 -41 10 -69 12 -45
5 -60 1 -114 -28 -79 -42 -110 -86 -117 -168 -7 -74 14 -136 64 -192 61 -68
94 -82 174 -77 l70 5 13 -31 c47 -110 246 -305 452 -443 83 -55 161 -104 173
-108 25 -8 25 -12 7 -56 -25 -60 -84 -280 -107 -399 -26 -136 -31 -377 -10
-449 12 -41 14 -43 43 -37 17 3 38 6 48 6 15 0 18 18 23 158 4 86 13 198 22
247 14 81 102 424 111 434 2 2 43 -14 91 -37 198 -91 718 -292 757 -292 18 0
44 -49 85 -157 42 -114 122 -289 180 -398 28 -53 51 -100 51 -105 0 -10 -156
-62 -255 -85 -33 -8 -91 -23 -128 -34 -38 -11 -143 -32 -235 -47 -140 -22
-186 -26 -287 -21 -149 7 -155 9 -155 56 0 140 -115 236 -257 216 -64 -10
-112 -30 -147 -63 -99 -93 -83 -268 32 -340 113 -71 209 -65 298 19 l30 29 45
-19 c107 -48 318 -53 509 -12 131 27 459 114 548 145 39 14 72 21 72 17 0 -4
37 -73 83 -152 144 -249 295 -457 442 -607 56 -56 106 -102 111 -102 5 0 27
21 48 46 l38 45 -94 97 c-51 54 -130 144 -174 202 -98 126 -243 354 -288 454
l-33 73 126 43 c119 40 301 109 310 117 3 2 -5 23 -16 46 -15 31 -18 48 -11
60 15 28 -21 21 -134 -24 -57 -23 -159 -59 -227 -80 l-123 -37 -85 176 c-78
161 -153 355 -142 366 2 3 56 -16 118 -41 160 -63 321 -101 321 -77 0 16 -61
112 -87 135 -17 16 -50 31 -83 39 -30 6 -107 36 -172 66 -64 30 -130 57 -147
60 -29 6 -39 21 -140 224 -60 119 -129 248 -153 286 -67 104 -250 410 -290
484 l-35 66 21 26 c11 15 44 65 71 113 55 95 154 231 186 255 20 16 20 16 -11
87 -16 40 -30 79 -30 87 0 9 -4 16 -10 16 -10 0 -166 -229 -215 -315 -40 -71
-77 -125 -85 -125 -30 0 -306 610 -280 618 6 2 61 29 122 59 115 56 348 149
398 160 l29 5 -24 37 c-13 20 -29 50 -35 67 l-11 32 -88 -33 c-48 -18 -121
-48 -162 -68 -41 -19 -118 -55 -172 -81 -55 -25 -103 -46 -107 -46 -9 0 -23
44 -59 185 -51 194 -76 431 -66 618 l7 127 35 0 c45 0 82 20 126 69 48 53 67
92 67 139 l0 39 64 11 c135 25 305 11 521 -44 127 -32 477 -138 497 -150 4 -3
4 -13 -1 -23 -13 -23 -106 -275 -121 -328 -12 -40 -11 -44 21 -99 19 -32 39
-59 44 -61 6 -2 32 57 59 129 62 165 122 318 130 325 11 11 582 -211 660 -258
37 -22 47 -23 208 -20 162 2 169 3 192 26 30 30 93 61 248 126 182 75 334 128
346 120 13 -8 108 -233 146 -346 39 -117 39 -118 75 -48 17 34 36 63 43 65 10
4 9 18 -6 64 -21 70 -102 282 -116 306 -5 10 -10 20 -10 22 0 10 303 101 510
153 199 51 224 55 340 56 69 1 151 0 182 -3 54 -5 58 -7 58 -30 0 -69 14 -103
61 -155 59 -64 104 -87 173 -87 138 -1 225 80 226 210 0 123 -100 222 -224
222 -67 0 -109 -16 -158 -59 -39 -34 -48 -37 -48 -18 0 21 -62 45 -151 57
-170 23 -460 -31 -844 -159 -132 -44 -181 -57 -187 -48 -5 7 -35 63 -69 125
-86 160 -167 287 -279 437 -89 119 -245 286 -266 285 -10 -1 -74 -85 -74 -97
0 -5 30 -38 66 -73 103 -101 242 -285 341 -450 54 -90 156 -290 151 -295 -2
-2 -41 -16 -88 -33 -82 -29 -233 -87 -505 -194 -71 -29 -164 -60 -205 -70 -41
-10 -83 -20 -92 -23 -10 -2 -18 0 -18 6 0 5 6 9 13 9 15 0 40 37 29 44 -4 2
-37 16 -72 29 -36 13 -98 41 -139 62 -69 34 -356 146 -415 161 -15 3 -26 13
-26 23 0 17 97 214 134 271 13 19 45 69 72 110 74 114 191 256 282 342 l82 78
-43 49 c-23 27 -45 50 -48 50 -4 1 -48 -43 -99 -96z m-1811 -2219 c55 -143
161 -362 230 -474 l53 -85 -17 -30 c-60 -101 -194 -361 -236 -456 -26 -62 -51
-114 -53 -117 -3 -2 -35 12 -72 32 -172 95 -332 221 -450 356 -64 73 -101 103
-116 94 -21 -13 -5 16 22 39 37 33 64 120 54 174 -3 21 -19 61 -35 90 l-28 51
87 85 c99 96 134 127 212 184 60 44 279 173 295 173 6 0 30 -52 54 -116z m387
-767 c89 -134 249 -400 299 -497 22 -41 55 -102 75 -135 30 -49 70 -135 70
-149 0 -2 -42 10 -92 26 -84 27 -185 66 -427 165 -107 44 -221 101 -221 111 0
11 82 197 117 267 33 65 119 212 135 233 15 18 21 15 44 -21z"/>
<path d="M2661 5199 c-43 -42 -43 -90 0 -130 41 -38 81 -38 120 0 21 22 29 39
29 66 0 27 -8 44 -29 66 -40 39 -80 39 -120 -2z"/>
<path d="M3778 7781 c-30 -27 -33 -35 -33 -86 0 -51 3 -59 33 -86 50 -45 99
-41 146 11 42 46 47 88 17 134 -42 63 -111 74 -163 27z"/>
<path d="M6364 7800 c-65 -26 -85 -123 -38 -179 67 -80 184 -27 184 83 0 30
-7 45 -34 72 -35 35 -68 42 -112 24z"/>
<path d="M5066 7374 c-35 -36 -34 -77 3 -115 52 -51 112 -36 150 39 9 17 9 27
0 45 -31 61 -107 76 -153 31z"/>
<path d="M7433 6903 l-33 -4 0 -100 c0 -195 -44 -508 -100 -718 -12 -45 -26
-83 -30 -86 -4 -2 -60 22 -126 54 -123 61 -356 161 -374 161 -5 0 -10 -6 -10
-12 0 -7 -13 -38 -29 -70 -28 -56 -28 -56 -7 -61 39 -10 270 -104 387 -159
l115 -54 -51 -134 c-62 -165 -214 -465 -235 -465 -9 0 -48 56 -92 130 -43 72
-103 170 -135 219 l-57 90 -8 -35 c-5 -19 -21 -60 -35 -92 -19 -40 -24 -62
-18 -71 85 -115 134 -188 185 -271 34 -55 66 -107 72 -116 14 -21 -27 -107
-148 -309 -170 -282 -250 -427 -324 -582 l-75 -157 -125 -49 c-69 -27 -156
-59 -195 -72 -106 -35 -127 -50 -162 -116 -18 -32 -33 -63 -33 -68 0 -17 89 4
255 59 92 31 170 54 173 51 8 -9 -47 -155 -115 -301 -36 -77 -76 -164 -90
-193 -29 -63 -25 -63 -168 -2 -104 45 -278 110 -294 110 -6 0 -11 -4 -11 -10
0 -5 -14 -25 -31 -45 -19 -21 -29 -41 -25 -51 8 -21 142 -81 301 -135 72 -24
131 -45 133 -45 6 -3 -54 -117 -126 -240 -114 -194 -229 -350 -351 -476 l-113
-118 37 -49 c30 -39 42 -48 54 -41 25 13 179 176 243 256 95 120 233 336 345
541 19 34 38 65 43 68 5 3 78 -17 162 -44 188 -61 431 -127 518 -140 180 -28
357 -22 450 15 36 15 38 14 68 -14 54 -51 163 -67 236 -37 55 23 123 90 142
141 37 98 -6 215 -98 262 -63 32 -154 40 -212 18 -82 -32 -152 -131 -144 -207
3 -29 0 -33 -32 -42 -51 -14 -351 -1 -440 18 -198 44 -551 153 -576 178 -2 2
32 82 77 178 45 96 105 230 133 299 72 174 65 165 148 191 156 48 497 184 700
278 37 17 70 31 72 31 7 0 63 -184 86 -282 31 -133 52 -280 59 -428 l6 -135
48 -9 c34 -6 52 -5 60 3 16 16 15 342 -2 444 -18 113 -77 337 -111 425 -16 42
-28 76 -27 76 6 2 73 39 157 89 174 102 431 330 490 436 22 38 24 39 89 43
187 14 293 181 217 344 -24 51 -61 86 -125 119 -28 14 -49 16 -101 11 l-66 -6
-13 36 c-34 95 -308 318 -558 455 -35 18 -63 39 -63 45 0 6 7 31 15 55 71 199
117 474 116 694 0 217 -9 239 -98 228z m41 -1194 c158 -96 304 -205 394 -298
l82 -84 -19 -21 c-66 -70 -69 -234 -7 -285 9 -8 16 -19 16 -26 0 -19 -191
-216 -279 -289 -41 -33 -134 -100 -205 -147 l-130 -87 -14 42 c-23 70 -207
439 -251 504 -43 63 -48 81 -31 98 10 10 64 107 171 309 39 74 114 247 142
328 4 9 12 17 18 17 6 0 57 -27 113 -61z m-501 -831 c37 -50 99 -167 171 -325
74 -163 77 -148 -43 -208 -125 -62 -572 -235 -609 -235 -8 0 -11 7 -8 18 12
37 215 422 266 502 91 146 182 280 191 280 4 0 19 -15 32 -32z"/>
<path d="M7485 5216 c-31 -14 -55 -51 -55 -87 0 -33 62 -89 98 -89 35 0 92 57
92 93 0 32 -27 67 -66 83 -39 16 -32 16 -69 0z"/>
<path d="M6483 6769 c-25 -103 -88 -233 -155 -323 -140 -187 -402 -401 -685
-561 -57 -31 -103 -59 -103 -62 0 -3 9 -18 20 -34 12 -15 30 -49 41 -74 23
-53 30 -54 139 -25 215 59 345 112 495 203 130 78 188 128 257 218 101 133
135 229 125 353 -7 100 -42 239 -80 321 l-33 69 -21 -85z"/>
<path d="M3706 6780 c-55 -122 -68 -172 -73 -285 -6 -128 6 -187 65 -298 95
-183 307 -333 633 -450 109 -39 277 -83 284 -75 1 2 13 23 25 48 12 25 33 60
47 78 14 18 23 35 22 36 -7 6 -153 92 -229 136 -142 81 -229 144 -362 262 -96
87 -235 253 -273 328 -39 76 -82 191 -90 238 -4 23 -10 42 -15 42 -4 0 -19
-27 -34 -60z"/>
<path d="M4660 6582 c0 -123 148 -286 292 -322 l47 -12 -18 -37 c-10 -20 -39
-101 -64 -181 -25 -80 -67 -206 -93 -280 -48 -135 -48 -135 -49 -265 0 -155
19 -222 94 -337 43 -66 163 -209 236 -282 26 -26 29 -27 38 -11 5 10 49 61 97
114 174 192 236 323 234 501 -1 118 -21 192 -80 286 -70 113 -84 151 -84 227
0 130 74 212 213 232 26 4 47 11 47 15 0 16 -71 99 -131 151 -111 97 -127 102
-324 104 -147 1 -179 5 -240 24 -77 25 -180 75 -190 91 -12 19 -25 10 -25 -18z
m594 -233 c17 -13 26 -30 26 -49 0 -32 -39 -70 -72 -70 -24 0 -68 47 -68 72 0
25 44 68 68 68 11 0 31 -9 46 -21z"/>
<path d="M5495 6587 c16 -12 52 -47 80 -77 120 -133 158 -164 227 -188 36 -13
75 -30 85 -37 10 -8 21 -15 26 -15 4 0 35 27 69 60 l61 60 -94 43 c-52 24
-132 56 -179 72 -47 15 -96 33 -110 40 -14 7 -63 24 -110 39 -83 25 -84 25
-55 3z"/>
<path d="M4410 6476 c-103 -40 -178 -75 -186 -88 -5 -8 59 -75 102 -104 19
-13 26 -11 75 16 30 16 77 37 104 46 49 16 80 34 58 34 -12 0 -53 89 -53 114
0 20 0 20 -100 -18z"/>
<path d="M3740 5888 c0 -61 34 -201 64 -263 60 -128 138 -192 276 -226 70 -18
358 -18 458 0 l72 13 0 71 0 72 -148 32 c-157 35 -327 86 -426 130 -68 30
-243 140 -265 166 -16 20 -31 22 -31 5z"/>
<path d="M6420 5823 c-187 -123 -504 -236 -728 -259 l-64 -7 6 -30 c3 -16 6
-47 6 -68 l0 -38 78 -17 c55 -13 121 -18 232 -18 171 -1 227 9 328 56 51 24
71 41 108 91 64 87 91 143 119 250 14 50 25 93 25 95 0 11 -38 -8 -110 -55z"/>
<path d="M4590 5304 c-82 -46 -268 -87 -438 -97 l-43 -2 26 -52 c64 -127 208
-187 318 -132 50 26 149 92 197 132 l35 29 -31 64 c-17 36 -33 66 -35 68 -2 3
-15 -2 -29 -10z"/>
<path d="M5600 5249 l-23 -60 64 -60 c35 -32 91 -76 124 -96 49 -31 69 -37
110 -37 94 2 165 48 231 151 43 66 43 77 1 69 -65 -12 -230 13 -357 54 -67 22
-123 40 -125 40 -1 0 -13 -27 -25 -61z"/>
<path d="M5477 5027 c-56 -58 -57 -79 -2 -134 30 -30 39 -33 90 -33 64 0 140
17 153 34 5 6 12 20 16 32 5 18 -3 26 -56 54 -35 18 -83 47 -108 65 l-45 31
-48 -49z"/>
<path d="M4650 5008 c-93 -62 -105 -72 -107 -97 -3 -33 44 -54 129 -59 67 -4
80 -2 104 17 28 22 74 79 74 92 0 6 -90 77 -115 91 -5 3 -44 -17 -85 -44z"/>
<path d="M4940 4752 c-50 -227 -228 -583 -363 -726 -43 -45 -43 -49 -18 -84
10 -15 35 -58 55 -97 52 -102 115 -200 128 -200 16 0 141 359 194 555 14 52
42 142 62 200 32 93 36 117 37 205 0 85 -3 106 -23 142 -12 23 -30 47 -41 52
-16 9 -19 4 -31 -47z"/>
<path d="M5262 4743 c-62 -97 -64 -121 -22 -259 17 -55 40 -139 50 -189 37
-167 200 -643 223 -648 4 -1 54 72 111 163 l103 165 -41 46 c-152 170 -301
456 -361 689 -9 36 -20 69 -24 73 -5 5 -22 -13 -39 -40z"/>
<path d="M5117 4417 c-25 -20 -30 -37 -67 -242 -40 -220 -59 -356 -85 -625
-27 -267 -16 -436 36 -558 27 -63 111 -192 126 -192 14 0 95 112 128 178 48
97 59 382 25 663 -47 383 -106 744 -129 786 -5 9 -14 6 -34 -10z"/>
<path d="M3787 2679 c-15 -11 -32 -38 -38 -60 -41 -136 124 -221 202 -103 36
55 15 138 -43 170 -35 20 -92 17 -121 -7z"/>
<path d="M6351 2686 c-35 -19 -50 -54 -51 -112 0 -44 5 -57 29 -83 52 -55 137
-36 176 39 20 39 19 69 -5 107 -34 56 -98 77 -149 49z"/>
<path d="M5025 2342 c-48 -23 -110 -89 -136 -146 -82 -182 113 -377 312 -312
114 38 173 119 174 243 0 63 -3 76 -30 114 -16 23 -52 59 -80 78 -45 33 -56
36 -125 39 -57 2 -85 -2 -115 -16z"/>
</g>
</svg>
